HIERARCHY
ROOT ui
{
	 OFFSET 0 0 0
	 CHANNELS 3 XPosition YPosition Z Position
	 EndSite
	 {
	 OFFSET 0 -1 0
	 }
}
ROOT li
{
	 OFFSET 0 0 0
	 CHANNELS 3 XPosition YPosition Z Position
	 EndSite
	 {
	 OFFSET 0 -1 0
	 }
}
ROOT ul
{
	 OFFSET 0 0 0
	 CHANNELS 3 XPosition YPosition Z Position
	 EndSite
	 {
	 OFFSET 0 -1 0
	 }
}
ROOT ll
{
	 OFFSET 0 0 0
	 CHANNELS 3 XPosition YPosition Z Position
	 EndSite
	 {
	 OFFSET 0 -1 0
	 }
}
ROOT tt
{
	 OFFSET 0 0 0
	 CHANNELS 3 XPosition YPosition Z Position
	 EndSite
	 {
	 OFFSET 0 -1 0
	 }
}
ROOT tb
{
	 OFFSET 0 0 0
	 CHANNELS 3 XPosition YPosition Z Position
	 EndSite
	 {
	 OFFSET 0 -1 0
	 }
}
ROOT td
{
	 OFFSET 0 0 0
	 CHANNELS 3 XPosition YPosition Z Position
	 EndSite
	 {
	 OFFSET 0 -1 0
	 }
}
ROOT v
{
	 OFFSET 0 0 0
	 CHANNELS 3 XPosition YPosition Z Position
	 EndSite
	 {
	 OFFSET 0 -1 0
	 }
}
ROOT bn
{
	 OFFSET 0 0 0
	 CHANNELS 3 XPosition YPosition Z Position
	 EndSite
	 {
	 OFFSET 0 -1 0
	 }
}
MOTION
Frames: 13
Frame Time: 0.002
-0.002133845090866089	4.0514698624610903E-4	0		0.4713885192871094	-2.309374267578125	0		-1.050319091796875	-0.0030147340297698973	0		-0.803847412109375	-2.31420263671875	0		1.46528857421875	-0.6798921508789062	0		3.10660693359375	-0.10378299713134766	0		4.61494970703125	0.03237456512451172	0		5.6073681640625	0.13099082946777343	0		-0.23822322082519531	5.875875	0		
-0.0025311150550842284	4.937019944190979E-4	0		0.4802142639160156	-2.31735400390625	0		-1.1135357666015624	0.008900917053222657	0		-0.8279385375976562	-2.31685888671875	0		1.4680565185546874	-0.6756290893554687	0		3.08421240234375	-0.10387932586669922	0		4.60764208984375	0.03927056884765625	0		5.61127001953125	0.1151209487915039	0		-0.23950938415527342	5.875927734375	0		
0.006900373935699463	-0.009572423934936524	0		0.458279541015625	-2.309849609375	0		-1.038973876953125	0.00665004301071167	0		-0.7998638305664062	-2.3093369140625	0		1.4677510986328124	-0.6753088989257813	0		3.099140625	-0.08253890991210938	0		4.61131640625	0.04602414321899414	0		5.61809521484375	0.11131819915771485	0		-0.36000640869140627	5.86682470703125	0		
0.002742225885391235	0.007573153018951416	0		0.48420037841796876	-2.312088623046875	0		-1.114371826171875	0.008717006683349609	0		-0.8358743896484375	-2.30682958984375	0		1.470485595703125	-0.672031494140625	0		3.08748876953125	-0.09777911376953125	0		4.6108876953125	0.04685916900634766	0		5.60947705078125	0.14792869567871095	0		-0.24222682189941405	5.8760234375	0		
0.006057723045349121	-0.009405014038085937	0		0.48415814208984376	-2.311928466796875	0		-1.03982177734375	0.006474341869354248	0		-0.8019972534179688	-2.3124033203125	0		1.458158203125	-0.6725258178710938	0		3.107290283203125	-0.08349345397949219	0		4.610455078125	0.04770207214355469	0		5.6133642578125	0.13218373107910156	0		-0.37792694091796875	5.85710009765625	0		
-0.004213478088378906	8.188509941101075E-4	0		0.4711662902832031	-2.308578857421875	0		-1.1233275146484376	0.0016215749979019165	0		-0.8379864501953125	-2.308923095703125	0		1.463755615234375	-0.678298095703125	0		3.080778076171875	-0.08951009368896484	0		4.6100234375	0.048545032501220706	0		5.61015478515625	0.12189351654052734	0		-0.24502786254882813	5.8760966796875	0		
-0.004633175849914551	8.848019838333129E-4	0		0.482042236328125	-2.31459619140625	0		-1.115644287109375	0.008380946159362792	0		-0.8380201416015625	-2.308996337890625	0		1.4634493408203124	-0.67798681640625	0		3.080373291015625	-0.0889285659790039	0		4.6055068359375	0.04344218063354492	0		5.6057041015625	0.1410494384765625	0		-0.24642945861816407	5.87612255859375	0		
0.0109097261428833	-0.0022915709018707276	0		0.4331683349609375	-2.30373876953125	0		-1.109131103515625	0.0031520180702209475	0		-0.8132258911132813	-2.321442626953125	0		1.4751644287109376	-0.676860595703125	0		3.090770263671875	-0.10251693725585938	0		4.612263671875	0.05616354751586914	0		5.61670458984375	0.11983739471435546	0		-0.381127197265625	5.85609521484375	0		
0.014554014205932617	7.027689814567566E-4	0		0.4860704956054688	-2.30938525390625	0		-1.03642236328125	0.009959694862365722	0		-0.8340081787109375	-2.305222412109375	0		1.465921142578125	-0.673436279296875	0		3.1187333984375	-0.07836576080322266	0		4.61185546875	0.05697437286376953	0		5.61865283203125	0.13352737426757813	0		-0.24820053100585937	5.8751357421875	0		
-0.0058291850090026855	0.001034816026687622	0		0.45806314086914063	-2.30886181640625	0		-1.1168438720703124	0.00798266315460205	0		-0.8021228637695312	-2.31277392578125	0		1.4595311279296874	-0.6810687255859375	0		3.079221435546875	-0.0872560577392578	0		4.6183740234375	0.051665775299072264	0		5.607833984375	0.15800743103027343	0		-0.41986636352539064	5.85358056640625	0		
0.0036570580005645752	-0.009072874069213867	0		0.507956298828125	-2.31646337890625	0		-1.042237548828125	0.005774258136749267	0		-0.8401066284179688	-2.311328369140625	0		1.4572266845703126	-0.6837730712890625	0		3.078864501953125	-0.08673080444335937	0		4.60799609375	0.05257843399047851	0		5.60884130859375	0.13012521362304688	0		-0.25280421447753904	5.87816064453125	0		
-0.006556529998779297	0.0010931470394134521	0		0.4560376586914062	-2.31062841796875	0		-1.1175733642578125	0.0076899809837341305	0		-0.838073486328125	-2.3094619140625	0		1.456977294921875	-0.68351904296875	0		3.078521728515625	-0.08622303771972656	0		4.61454638671875	0.047227775573730466	0		5.612775390625	0.11248297119140625	0		-0.2540802764892578	5.87814697265625	0		
-0.003857398986816406	0.004069104194641114	0		0.48404678344726565	-2.310928466796875	0		-1.1179166259765625	0.007537720203399659	0		-0.8231187744140624	-2.313779296875	0		1.464891845703125	-0.6723890991210938	0		3.0892890625	-0.07888603210449219	0		4.6103642578125	0.06000781631469727	0		5.61130419921875	0.14515731811523438	0		-0.2543504791259766	5.87611328125	0		
